<svg xmlns="http://www.w3.org/2000/svg" xmlns:xlink="http://www.w3.org/1999/xlink" viewBox="0,0,256,256" width="100px" height="100px" fill-rule="nonzero"><g transform="translate(76.8,76.8) scale(0.4,0.4)"><g fill="#000000" fill-rule="nonzero" stroke="none" stroke-width="1" stroke-linecap="butt" stroke-linejoin="miter" stroke-miterlimit="10" stroke-dasharray="" stroke-dashoffset="0" font-family="none" font-weight="none" font-size="none" text-anchor="none" style="mix-blend-mode: normal"><path d="M-192,448v-640h640v640z" id="bgRectangle"></path></g><g fill="#7cfc00" fill-rule="nonzero" stroke="none" stroke-width="1" stroke-linecap="butt" stroke-linejoin="miter" stroke-miterlimit="10" stroke-dasharray="" stroke-dashoffset="0" font-family="none" font-weight="none" font-size="none" text-anchor="none" style="mix-blend-mode: normal"><g transform="scale(5.12,5.12)"><path d="M28.1875,0c2.75,6.36328 -9.85937,10.29297 -11.03125,15.59375c-1.07422,4.87109 7.49219,10.53125 7.5,10.53125c-1.30078,-2.01562 -2.25781,-3.67578 -3.5625,-6.8125c-2.20703,-5.30469 13.44141,-10.10547 7.09375,-19.3125zM36.5625,8.8125c0,0 -11.0625,0.71094 -11.625,7.78125c-0.25,3.14844 2.91016,4.80469 3,7.09375c0.07422,1.87109 -1.875,3.4375 -1.875,3.4375c0,0 3.54688,-0.67578 4.65625,-3.53125c1.23047,-3.16797 -2.39844,-5.30859 -2.03125,-7.84375c0.35156,-2.42578 7.875,-6.9375 7.875,-6.9375zM19.1875,25.15625c0,0 -10.125,-0.14453 -10.125,2.71875c0,2.99219 13.25391,3.21484 22.71875,1.375c0,0 2.51563,-1.73047 3.1875,-2.375c-6.20312,1.26563 -20.34375,1.40625 -20.34375,0.3125c0,-1.00781 4.5625,-2.03125 4.5625,-2.03125zM38.65625,25.15625c-0.99219,0.07813 -2.0625,0.46094 -3.03125,1.15625c2.28125,-0.49219 4.21875,0.92188 4.21875,2.53125c0,3.625 -5.25,7.03125 -5.25,7.03125c0,0 8.125,-0.92187 8.125,-6.875c0,-2.70312 -1.87891,-4.01562 -4.0625,-3.84375zM16.75,30.71875c-1.55469,0 -3.875,1.21875 -3.875,2.375c0,2.32422 11.6875,4.11328 20.34375,0.71875l-3,-1.84375c-5.86719,1.87891 -16.67187,1.26563 -13.46875,-1.25zM18.1875,35.9375c-2.12891,0 -3.53125,1.28516 -3.53125,2.25c0,2.98438 12.71484,3.28516 17.75,0.25l-3.1875,-2.03125c-3.76172,1.58984 -13.20312,1.83203 -11.03125,-0.46875zM11.09375,38.625c-3.46875,-0.07031 -5.71875,1.48828 -5.71875,2.78125c0,6.875 35.5,6.55859 35.5,-0.46875c0,-1.16797 -1.34766,-1.73437 -1.84375,-2c2.90234,6.71875 -29.0625,6.18359 -29.0625,2.21875c0,-0.90234 2.35156,-1.76562 4.53125,-1.34375l-1.84375,-1.0625c-0.54297,-0.08203 -1.06641,-0.11328 -1.5625,-0.125zM44.625,43.25c-5.39844,5.11719 -19.07812,6.97266 -32.84375,3.8125c13.76172,5.63281 32.77734,2.47266 32.84375,-3.8125z"></path></g></g><g fill="#7cfc00" fill-rule="nonzero" stroke="none" stroke-width="1" stroke-linecap="butt" stroke-linejoin="miter" stroke-miterlimit="10" stroke-dasharray="" stroke-dashoffset="0" font-family="none" font-weight="none" font-size="none" text-anchor="none" style="mix-blend-mode: normal"><g id="text"><path d="M99.17,287v-20.16h6v20.16c0,1.85333 -0.41,3.49 -1.23,4.91c-0.82,1.42 -1.97667,2.51667 -3.47,3.29c-1.49333,0.77333 -3.18,1.16 -5.06,1.16v0c-3.08,0 -5.48,-0.78333 -7.2,-2.35c-1.72,-1.56667 -2.58,-3.78333 -2.58,-6.65v0h6.04c0,1.42667 0.3,2.48 0.9,3.16c0.6,0.68 1.54667,1.02 2.84,1.02v0c1.14667,0 2.06,-0.39333 2.74,-1.18c0.68,-0.78667 1.02,-1.90667 1.02,-3.36zM128.31,295.96h-5.84c-0.26667,-0.52 -0.46,-1.16667 -0.58,-1.94v0c-1.4,1.56 -3.22,2.34 -5.46,2.34v0c-2.12,0 -3.87667,-0.61333 -5.27,-1.84c-1.39333,-1.22667 -2.09,-2.77333 -2.09,-4.64v0c0,-2.29333 0.85,-4.05333 2.55,-5.28c1.7,-1.22667 4.15667,-1.84667 7.37,-1.86v0h2.66v-1.24c0,-1 -0.25667,-1.8 -0.77,-2.4c-0.51333,-0.6 -1.32333,-0.9 -2.43,-0.9v0c-0.97333,0 -1.73667,0.23333 -2.29,0.7c-0.55333,0.46667 -0.83,1.10667 -0.83,1.92v0h-5.78c0,-1.25333 0.38667,-2.41333 1.16,-3.48c0.77333,-1.06667 1.86667,-1.90333 3.28,-2.51c1.41333,-0.60667 3,-0.91 4.76,-0.91v0c2.66667,0 4.78333,0.67 6.35,2.01c1.56667,1.34 2.35,3.22333 2.35,5.65v0v9.38c0.01333,2.05333 0.3,3.60667 0.86,4.66v0zM117.69,291.94v0c0.85333,0 1.64,-0.19 2.36,-0.57c0.72,-0.38 1.25333,-0.89 1.6,-1.53v0v-3.72h-2.16c-2.89333,0 -4.43333,1 -4.62,3v0l-0.02,0.34c0,0.72 0.25333,1.31333 0.76,1.78c0.50667,0.46667 1.2,0.7 2.08,0.7zM135.67,274.32l4.02,14.58l4.02,-14.58h6.04l-7.3,21.64h-5.52l-7.3,-21.64zM170.37,295.96h-5.84c-0.26667,-0.52 -0.46,-1.16667 -0.58,-1.94v0c-1.4,1.56 -3.22,2.34 -5.46,2.34v0c-2.12,0 -3.87667,-0.61333 -5.27,-1.84c-1.39333,-1.22667 -2.09,-2.77333 -2.09,-4.64v0c0,-2.29333 0.85,-4.05333 2.55,-5.28c1.7,-1.22667 4.15667,-1.84667 7.37,-1.86v0h2.66v-1.24c0,-1 -0.25667,-1.8 -0.77,-2.4c-0.51333,-0.6 -1.32333,-0.9 -2.43,-0.9v0c-0.97333,0 -1.73667,0.23333 -2.29,0.7c-0.55333,0.46667 -0.83,1.10667 -0.83,1.92v0h-5.78c0,-1.25333 0.38667,-2.41333 1.16,-3.48c0.77333,-1.06667 1.86667,-1.90333 3.28,-2.51c1.41333,-0.60667 3,-0.91 4.76,-0.91v0c2.66667,0 4.78333,0.67 6.35,2.01c1.56667,1.34 2.35,3.22333 2.35,5.65v0v9.38c0.01333,2.05333 0.3,3.60667 0.86,4.66v0zM159.75,291.94v0c0.85333,0 1.64,-0.19 2.36,-0.57c0.72,-0.38 1.25333,-0.89 1.6,-1.53v0v-3.72h-2.16c-2.89333,0 -4.43333,1 -4.62,3v0l-0.02,0.34c0,0.72 0.25333,1.31333 0.76,1.78c0.50667,0.46667 1.2,0.7 2.08,0.7z"></path></g></g></g></svg>