<svg xmlns="http://www.w3.org/2000/svg" xmlns:xlink="http://www.w3.org/1999/xlink" viewBox="0,0,256,256" width="100px" height="100px" fill-rule="nonzero"><g transform="translate(76.8,76.8) scale(0.4,0.4)"><g fill="#000000" fill-rule="nonzero" stroke="none" stroke-width="1" stroke-linecap="butt" stroke-linejoin="miter" stroke-miterlimit="10" stroke-dasharray="" stroke-dashoffset="0" font-family="none" font-weight="none" font-size="none" text-anchor="none" style="mix-blend-mode: normal"><path d="M-192,448v-640h640v640z" id="bgRectangle"></path></g><g fill="#7cfc00" fill-rule="evenodd" stroke="none" stroke-width="1" stroke-linecap="butt" stroke-linejoin="miter" stroke-miterlimit="10" stroke-dasharray="" stroke-dashoffset="0" font-family="none" font-weight="none" font-size="none" text-anchor="none" style="mix-blend-mode: normal"><g transform="scale(5.12,5.12)"><path d="M39,40l-14,4l-14,-4l-3,-34h34c-1,11.33203 -2,22.66797 -3,34zM39.81641,8h-29.63281l2.6875,30.45313l12.12891,3.46875l12.12891,-3.46875zM16.80078,28h4l0.09766,2.5l4.10156,1.39844l4.10156,-1.39844l0.29688,-4.5h-8.79687l-0.20312,-4h9.20313l0.29688,-4h-13.79687l-0.30078,-4h18.30078l-0.5,8l-0.70312,11.5l-7.89844,2.60156l-7.89844,-2.60156z"></path></g></g><g fill="#7cfc00" fill-rule="nonzero" stroke="none" stroke-width="1" stroke-linecap="butt" stroke-linejoin="miter" stroke-miterlimit="10" stroke-dasharray="" stroke-dashoffset="0" font-family="none" font-weight="none" font-size="none" text-anchor="none" style="mix-blend-mode: normal"><g id="text"><path d="M108.75,260.86h6c-0.22667,3.13333 -1.38333,5.6 -3.47,7.4c-2.08667,1.8 -4.83667,2.7 -8.25,2.7v0c-3.73333,0 -6.67,-1.25667 -8.81,-3.77c-2.14,-2.51333 -3.21,-5.96333 -3.21,-10.35v0v-1.78c0,-2.8 0.49333,-5.26667 1.48,-7.4c0.98667,-2.13333 2.39667,-3.77 4.23,-4.91c1.83333,-1.14 3.96333,-1.71 6.39,-1.71v0c3.36,0 6.06667,0.9 8.12,2.7c2.05333,1.8 3.24,4.32667 3.56,7.58v0h-6c-0.14667,-1.88 -0.67,-3.24333 -1.57,-4.09c-0.9,-0.84667 -2.27,-1.27 -4.11,-1.27v0c-2,0 -3.49667,0.71667 -4.49,2.15c-0.99333,1.43333 -1.50333,3.65667 -1.53,6.67v0v2.2c0,3.14667 0.47667,5.44667 1.43,6.9c0.95333,1.45333 2.45667,2.18 4.51,2.18v0c1.85333,0 3.23667,-0.42333 4.15,-1.27c0.91333,-0.84667 1.43667,-2.15667 1.57,-3.93zM133.79,262.92v0c0,-1.13333 -0.4,-2.00333 -1.2,-2.61c-0.8,-0.60667 -2.24,-1.24667 -4.32,-1.92c-2.08,-0.67333 -3.72667,-1.33667 -4.94,-1.99v0c-3.30667,-1.78667 -4.96,-4.19333 -4.96,-7.22v0c0,-1.57333 0.44333,-2.97667 1.33,-4.21c0.88667,-1.23333 2.16,-2.19667 3.82,-2.89c1.66,-0.69333 3.52333,-1.04 5.59,-1.04v0c2.08,0 3.93333,0.37667 5.56,1.13c1.62667,0.75333 2.89,1.81667 3.79,3.19c0.9,1.37333 1.35,2.93333 1.35,4.68v0h-6c0,-1.33333 -0.42,-2.37 -1.26,-3.11c-0.84,-0.74 -2.02,-1.11 -3.54,-1.11v0c-1.46667,0 -2.60667,0.31 -3.42,0.93c-0.81333,0.62 -1.22,1.43667 -1.22,2.45v0c0,0.94667 0.47667,1.74 1.43,2.38c0.95333,0.64 2.35667,1.24 4.21,1.8v0c3.41333,1.02667 5.9,2.3 7.46,3.82c1.56,1.52 2.34,3.41333 2.34,5.68v0c0,2.52 -0.95333,4.49667 -2.86,5.93c-1.90667,1.43333 -4.47333,2.15 -7.7,2.15v0c-2.24,0 -4.28,-0.41 -6.12,-1.23c-1.84,-0.82 -3.24333,-1.94333 -4.21,-3.37c-0.96667,-1.42667 -1.45,-3.08 -1.45,-4.96v0h6.02c0,3.21333 1.92,4.82 5.76,4.82v0c1.42667,0 2.54,-0.29 3.34,-0.87c0.8,-0.58 1.2,-1.39 1.2,-2.43zM158.97,262.92v0c0,-1.13333 -0.4,-2.00333 -1.2,-2.61c-0.8,-0.60667 -2.24,-1.24667 -4.32,-1.92c-2.08,-0.67333 -3.72667,-1.33667 -4.94,-1.99v0c-3.30667,-1.78667 -4.96,-4.19333 -4.96,-7.22v0c0,-1.57333 0.44333,-2.97667 1.33,-4.21c0.88667,-1.23333 2.16,-2.19667 3.82,-2.89c1.66,-0.69333 3.52333,-1.04 5.59,-1.04v0c2.08,0 3.93333,0.37667 5.56,1.13c1.62667,0.75333 2.89,1.81667 3.79,3.19c0.9,1.37333 1.35,2.93333 1.35,4.68v0h-6c0,-1.33333 -0.42,-2.37 -1.26,-3.11c-0.84,-0.74 -2.02,-1.11 -3.54,-1.11v0c-1.46667,0 -2.60667,0.31 -3.42,0.93c-0.81333,0.62 -1.22,1.43667 -1.22,2.45v0c0,0.94667 0.47667,1.74 1.43,2.38c0.95333,0.64 2.35667,1.24 4.21,1.8v0c3.41333,1.02667 5.9,2.3 7.46,3.82c1.56,1.52 2.34,3.41333 2.34,5.68v0c0,2.52 -0.95333,4.49667 -2.86,5.93c-1.90667,1.43333 -4.47333,2.15 -7.7,2.15v0c-2.24,0 -4.28,-0.41 -6.12,-1.23c-1.84,-0.82 -3.24333,-1.94333 -4.21,-3.37c-0.96667,-1.42667 -1.45,-3.08 -1.45,-4.96v0h6.02c0,3.21333 1.92,4.82 5.76,4.82v0c1.42667,0 2.54,-0.29 3.34,-0.87c0.8,-0.58 1.2,-1.39 1.2,-2.43z"></path></g></g></g></svg>