<svg xmlns="http://www.w3.org/2000/svg" xmlns:xlink="http://www.w3.org/1999/xlink" viewBox="0,0,256,256" width="100px" height="100px" fill-rule="nonzero"><g transform="translate(76.8,76.8) scale(0.4,0.4)"><g fill="#000000" fill-rule="nonzero" stroke="none" stroke-width="1" stroke-linecap="butt" stroke-linejoin="miter" stroke-miterlimit="10" stroke-dasharray="" stroke-dashoffset="0" font-family="none" font-weight="none" font-size="none" text-anchor="none" style="mix-blend-mode: normal"><path d="M-192,448v-640h640v640z" id="bgRectangle"></path></g><g fill="#7cfc00" fill-rule="nonzero" stroke="none" stroke-width="1" stroke-linecap="butt" stroke-linejoin="miter" stroke-miterlimit="10" stroke-dasharray="" stroke-dashoffset="0" font-family="none" font-weight="none" font-size="none" text-anchor="none" style="mix-blend-mode: normal"><g transform="scale(5.12,5.12)"><path d="M5.46484,2c-0.28085,-0.00001 -0.54877,0.11808 -0.73824,0.32539c-0.18948,0.20731 -0.28305,0.48474 -0.25785,0.76446l3.51953,39.42578c0.03655,0.41206 0.32303,0.7591 0.7207,0.87305l16.00977,4.57227c0.17936,0.05118 0.36946,0.05118 0.54883,0l16.02539,-4.57227c0.39768,-0.11395 0.68415,-0.46098 0.7207,-0.87305l3.51758,-39.42578c0.0252,-0.27972 -0.06837,-0.55715 -0.25785,-0.76446c-0.18948,-0.20731 -0.45739,-0.32539 -0.73824,-0.32539zM6.55859,4h36.88281l-3.35742,37.6543l-15.08984,4.30664l-15.07422,-4.30664zM19,10c-0.55226,0.00006 -0.99994,0.44774 -1,1v18.62891l-5.73242,-1.58789c-0.30098,-0.08354 -0.6237,-0.02166 -0.87244,0.16728c-0.24873,0.18894 -0.3949,0.48325 -0.39514,0.79561v4.94531c0.00032,0.44898 0.29982,0.84272 0.73242,0.96289l11,3.05078c0.30098,0.08354 0.6237,0.02166 0.87244,-0.16728c0.24873,-0.18894 0.3949,-0.48325 0.39514,-0.79561v-26c-0.00006,-0.55226 -0.44774,-0.99994 -1,-1zM27,10c-0.55226,0.00006 -0.99994,0.44774 -1,1v17c-0.00022,0.29507 0.12987,0.57518 0.35547,0.76538c0.2256,0.19019 0.52367,0.27106 0.81445,0.22095l5.74805,-0.99023l-0.11914,1.77148l-6.06445,1.66797c-0.43338,0.11944 -0.73381,0.51336 -0.73437,0.96289v4.60156c-0.0002,0.31225 0.14545,0.60667 0.39377,0.79598c0.24832,0.18931 0.57081,0.25177 0.87185,0.16887l10,-2.75c0.40339,-0.1113 0.69483,-0.46197 0.73047,-0.87891l1.05469,-12.25c0.0262,-0.30365 -0.0875,-0.60268 -0.30883,-0.81222c-0.22133,-0.20954 -0.52612,-0.30672 -0.82789,-0.26395l-5.91406,0.83789v-5.84766h6.6543c0.51888,-0.00015 0.95146,-0.39711 0.99609,-0.91406l0.3457,-4c0.02404,-0.27908 -0.07006,-0.55545 -0.2594,-0.76187c-0.18935,-0.20642 -0.45658,-0.32398 -0.73669,-0.32407zM20,12h2v23.68555l-9,-2.49609v-2.87109l5.73242,1.58984c0.30098,0.08354 0.6237,0.02166 0.87244,-0.16728c0.24873,-0.18894 0.3949,-0.48325 0.39514,-0.79561zM28,12h9.91016l-0.17383,2h-6.73633c-0.55226,0.00006 -0.99994,0.44774 -1,1v8c-0.00002,0.28977 0.12565,0.5653 0.34446,0.75527c0.21881,0.18996 0.50927,0.27568 0.79616,0.23497l5.81055,-0.82422l-0.88867,10.30469l-8.0625,2.2168v-2.52539l6.01563,-1.6543c0.40986,-0.1128 0.70362,-0.47237 0.73242,-0.89648l0.25,-3.75c0.02062,-0.30608 -0.10039,-0.60469 -0.32826,-0.81009c-0.22787,-0.20539 -0.53741,-0.29484 -0.83971,-0.24265l-5.83008,1.00391z"></path></g></g><g fill="#7cfc00" fill-rule="nonzero" stroke="none" stroke-width="1" stroke-linecap="butt" stroke-linejoin="miter" stroke-miterlimit="10" stroke-dasharray="" stroke-dashoffset="0" font-family="none" font-weight="none" font-size="none" text-anchor="none" style="mix-blend-mode: normal"><g id="text"><path d="M46.32,283.59v-20.16h6v20.16c0,1.85333 -0.41,3.49 -1.23,4.91c-0.82,1.42 -1.97667,2.51667 -3.47,3.29c-1.49333,0.77333 -3.18,1.16 -5.06,1.16v0c-3.08,0 -5.48,-0.78333 -7.2,-2.35c-1.72,-1.56667 -2.58,-3.78333 -2.58,-6.65v0h6.04c0,1.42667 0.3,2.48 0.9,3.16c0.6,0.68 1.54667,1.02 2.84,1.02v0c1.14667,0 2.06,-0.39333 2.74,-1.18c0.68,-0.78667 1.02,-1.90667 1.02,-3.36zM75.46,292.55h-5.84c-0.26667,-0.52 -0.46,-1.16667 -0.58,-1.94v0c-1.4,1.56 -3.22,2.34 -5.46,2.34v0c-2.12,0 -3.87667,-0.61333 -5.27,-1.84c-1.39333,-1.22667 -2.09,-2.77333 -2.09,-4.64v0c0,-2.29333 0.85,-4.05333 2.55,-5.28c1.7,-1.22667 4.15667,-1.84667 7.37,-1.86v0h2.66v-1.24c0,-1 -0.25667,-1.8 -0.77,-2.4c-0.51333,-0.6 -1.32333,-0.9 -2.43,-0.9v0c-0.97333,0 -1.73667,0.23333 -2.29,0.7c-0.55333,0.46667 -0.83,1.10667 -0.83,1.92v0h-5.78c0,-1.25333 0.38667,-2.41333 1.16,-3.48c0.77333,-1.06667 1.86667,-1.90333 3.28,-2.51c1.41333,-0.60667 3,-0.91 4.76,-0.91v0c2.66667,0 4.78333,0.67 6.35,2.01c1.56667,1.34 2.35,3.22333 2.35,5.65v0v9.38c0.01333,2.05333 0.3,3.60667 0.86,4.66v0zM64.84,288.53v0c0.85333,0 1.64,-0.19 2.36,-0.57c0.72,-0.38 1.25333,-0.89 1.6,-1.53v0v-3.72h-2.16c-2.89333,0 -4.43333,1 -4.62,3v0l-0.02,0.34c0,0.72 0.25333,1.31333 0.76,1.78c0.50667,0.46667 1.2,0.7 2.08,0.7zM82.82,270.91l4.02,14.58l4.02,-14.58h6.04l-7.3,21.64h-5.52l-7.3,-21.64zM117.52,292.55h-5.84c-0.26667,-0.52 -0.46,-1.16667 -0.58,-1.94v0c-1.4,1.56 -3.22,2.34 -5.46,2.34v0c-2.12,0 -3.87667,-0.61333 -5.27,-1.84c-1.39333,-1.22667 -2.09,-2.77333 -2.09,-4.64v0c0,-2.29333 0.85,-4.05333 2.55,-5.28c1.7,-1.22667 4.15667,-1.84667 7.37,-1.86v0h2.66v-1.24c0,-1 -0.25667,-1.8 -0.77,-2.4c-0.51333,-0.6 -1.32333,-0.9 -2.43,-0.9v0c-0.97333,0 -1.73667,0.23333 -2.29,0.7c-0.55333,0.46667 -0.83,1.10667 -0.83,1.92v0h-5.78c0,-1.25333 0.38667,-2.41333 1.16,-3.48c0.77333,-1.06667 1.86667,-1.90333 3.28,-2.51c1.41333,-0.60667 3,-0.91 4.76,-0.91v0c2.66667,0 4.78333,0.67 6.35,2.01c1.56667,1.34 2.35,3.22333 2.35,5.65v0v9.38c0.01333,2.05333 0.3,3.60667 0.86,4.66v0zM106.9,288.53v0c0.85333,0 1.64,-0.19 2.36,-0.57c0.72,-0.38 1.25333,-0.89 1.6,-1.53v0v-3.72h-2.16c-2.89333,0 -4.43333,1 -4.62,3v0l-0.02,0.34c0,0.72 0.25333,1.31333 0.76,1.78c0.50667,0.46667 1.2,0.7 2.08,0.7zM132.82,286.57v0c0,-0.70667 -0.35,-1.26333 -1.05,-1.67c-0.7,-0.40667 -1.82333,-0.77 -3.37,-1.09v0c-5.14667,-1.08 -7.72,-3.26667 -7.72,-6.56v0c0,-1.92 0.79667,-3.52333 2.39,-4.81c1.59333,-1.28667 3.67667,-1.93 6.25,-1.93v0c2.74667,0 4.94333,0.64667 6.59,1.94c1.64667,1.29333 2.47,2.97333 2.47,5.04v0h-5.78c0,-0.82667 -0.26667,-1.51 -0.8,-2.05c-0.53333,-0.54 -1.36667,-0.81 -2.5,-0.81v0c-0.97333,0 -1.72667,0.22 -2.26,0.66c-0.53333,0.44 -0.8,1 -0.8,1.68v0c0,0.64 0.30333,1.15667 0.91,1.55c0.60667,0.39333 1.63,0.73333 3.07,1.02c1.44,0.28667 2.65333,0.61 3.64,0.97v0c3.05333,1.12 4.58,3.06 4.58,5.82v0c0,1.97333 -0.84667,3.57 -2.54,4.79c-1.69333,1.22 -3.88,1.83 -6.56,1.83v0c-1.81333,0 -3.42333,-0.32333 -4.83,-0.97c-1.40667,-0.64667 -2.51,-1.53333 -3.31,-2.66c-0.8,-1.12667 -1.2,-2.34333 -1.2,-3.65v0h5.48c0.05333,1.02667 0.43333,1.81333 1.14,2.36c0.70667,0.54667 1.65333,0.82 2.84,0.82v0c1.10667,0 1.94333,-0.21 2.51,-0.63c0.56667,-0.42 0.85,-0.97 0.85,-1.65zM151.16,288.29v0c1.06667,0 1.93333,-0.29333 2.6,-0.88c0.66667,-0.58667 1.01333,-1.36667 1.04,-2.34v0h5.42c-0.01333,1.46667 -0.41333,2.81 -1.2,4.03c-0.78667,1.22 -1.86333,2.16667 -3.23,2.84c-1.36667,0.67333 -2.87667,1.01 -4.53,1.01v0c-3.09333,0 -5.53333,-0.98333 -7.32,-2.95c-1.78667,-1.96667 -2.68,-4.68333 -2.68,-8.15v0v-0.38c0,-3.33333 0.88667,-5.99333 2.66,-7.98c1.77333,-1.98667 4.20667,-2.98 7.3,-2.98v0c2.70667,0 4.87667,0.77 6.51,2.31c1.63333,1.54 2.46333,3.59 2.49,6.15v0h-5.42c-0.02667,-1.12 -0.37333,-2.03 -1.04,-2.73c-0.66667,-0.7 -1.54667,-1.05 -2.64,-1.05v0c-1.34667,0 -2.36333,0.49 -3.05,1.47c-0.68667,0.98 -1.03,2.57 -1.03,4.77v0v0.6c0,2.22667 0.34,3.82667 1.02,4.8c0.68,0.97333 1.71333,1.46 3.1,1.46zM175.76,270.77l-0.08,5.56c-0.78667,-0.10667 -1.48,-0.16 -2.08,-0.16v0c-2.18667,0 -3.62,0.74 -4.3,2.22v0v14.16h-5.78v-21.64h5.46l0.16,2.58c1.16,-1.98667 2.76667,-2.98 4.82,-2.98v0c0.64,0 1.24,0.08667 1.8,0.26zM184.56,270.91v21.64h-5.8v-21.64zM178.42,265.31v0c0,-0.86667 0.29,-1.58 0.87,-2.14c0.58,-0.56 1.37,-0.84 2.37,-0.84v0c0.98667,0 1.77333,0.28 2.36,0.84c0.58667,0.56 0.88,1.27333 0.88,2.14v0c0,0.88 -0.29667,1.6 -0.89,2.16c-0.59333,0.56 -1.37667,0.84 -2.35,0.84c-0.97333,0 -1.75667,-0.28 -2.35,-0.84c-0.59333,-0.56 -0.89,-1.28 -0.89,-2.16zM208.8,281.63v0.3c0,3.33333 -0.75667,6.00333 -2.27,8.01c-1.51333,2.00667 -3.55667,3.01 -6.13,3.01v0c-2.18667,0 -3.95333,-0.76 -5.3,-2.28v0v10.2h-5.78v-29.96h5.36l0.2,2.12c1.4,-1.68 3.22667,-2.52 5.48,-2.52v0c2.66667,0 4.74,0.98667 6.22,2.96c1.48,1.97333 2.22,4.69333 2.22,8.16zM203.02,281.51v0c0,-2.01333 -0.35667,-3.56667 -1.07,-4.66c-0.71333,-1.09333 -1.75,-1.64 -3.11,-1.64v0c-1.81333,0 -3.06,0.69333 -3.74,2.08v0v8.86c0.70667,1.42667 1.96667,2.14 3.78,2.14v0c2.76,0 4.14,-2.26 4.14,-6.78zM213.52,265.59h5.78v5.32h3.7v4.24h-3.7v10.8c0,0.8 0.15333,1.37333 0.46,1.72c0.30667,0.34667 0.89333,0.52 1.76,0.52v0c0.64,0 1.20667,-0.04667 1.7,-0.14v0v4.38c-1.13333,0.34667 -2.3,0.52 -3.5,0.52v0c-4.05333,0 -6.12,-2.04667 -6.2,-6.14v0v-11.66h-3.16v-4.24h3.16z"></path></g></g></g></svg>